<svg width="16" height="16" viewBox="0 0 16 16" fill="none" xmlns="http://www.w3.org/2000/svg">
<g id="cargo">
<path fill-rule="evenodd" clip-rule="evenodd" d="M8.28975 3L3.00003 5.23824V10.3282L8.28975 12.5664L13.5795 10.3282V5.23824L8.28975 3ZM12.6177 6.15689V9.81643L8.77063 11.4442V7.78468L12.6177 6.15689ZM7.80886 7.78468V11.4442L3.9618 9.81643V6.15689L5.40445 6.76732V8.4009L6.36621 8.81269V7.17429L7.80886 7.78468ZM4.56643 5.49409L5.81948 6.02427C5.84692 6.00487 5.87738 5.98781 5.91059 5.97359L9.50703 4.43372L8.28975 3.91865L4.56643 5.49409ZM10.5887 4.8914L6.88743 6.47616L8.28975 7.06953L12.013 5.49409L10.5887 4.8914Z" fill="#DBB180"/>
<path fill-rule="evenodd" clip-rule="evenodd" d="M8.28975 3L3.00003 5.23824V10.3282L8.28975 12.5664L13.5795 10.3282V5.23824L8.28975 3ZM12.6177 6.15689V9.81643L8.77063 11.4442V7.78468L12.6177 6.15689ZM7.80886 7.78468V11.4442L3.9618 9.81643V6.15689L5.40445 6.76732V8.4009L6.36621 8.81269V7.17429L7.80886 7.78468ZM4.56643 5.49409L5.81948 6.02427C5.84692 6.00487 5.87738 5.98781 5.91059 5.97359L9.50703 4.43372L8.28975 3.91865L4.56643 5.49409ZM10.5887 4.8914L6.88743 6.47616L8.28975 7.06953L12.013 5.49409L10.5887 4.8914Z" fill="#C08259"/>
<path fill-rule="evenodd" clip-rule="evenodd" d="M8.28975 3L3.00003 5.23824V10.3282L8.28975 12.5664L13.5795 10.3282V5.23824L8.28975 3ZM12.6177 6.15689V9.81643L8.77063 11.4442V7.78468L12.6177 6.15689ZM7.80886 7.78468V11.4442L3.9618 9.81643V6.15689L5.40445 6.76732V8.4009L6.36621 8.81269V7.17429L7.80886 7.78468ZM4.56643 5.49409L5.81948 6.02427C5.84692 6.00487 5.87738 5.98781 5.91059 5.97359L9.50703 4.43372L8.28975 3.91865L4.56643 5.49409ZM10.5887 4.8914L6.88743 6.47616L8.28975 7.06953L12.013 5.49409L10.5887 4.8914Z" stroke="#B36B3C"/>
</g>
</svg>
