<svg width="16" height="16" viewBox="0 0 16 16" fill="none" xmlns="http://www.w3.org/2000/svg">
<g clip-path="url(#clip0_2020_201)">
<mask id="mask0_2020_201" style="mask-type:luminance" maskUnits="userSpaceOnUse" x="0" y="0" width="16" height="16">
<path d="M0 0H16V16H0V0Z" fill="white"/>
</mask>
<g mask="url(#mask0_2020_201)">
<path fill-rule="evenodd" clip-rule="evenodd" d="M14.9168 6.66667H9.08341C7.79475 6.66667 6.75008 7.71134 6.75008 9V14.6H2.31674C1.94544 14.6 1.58935 14.4525 1.32679 14.1899C1.06424 13.9274 0.916748 13.5713 0.916748 13.2V3.4C0.916748 3.0287 1.06424 2.6726 1.32679 2.41005C1.58935 2.1475 1.94544 2 2.31674 2H5.81674L7.21674 4.1H13.5168C13.8881 4.1 14.2442 4.2475 14.5067 4.51005C14.7693 4.7726 14.9168 5.1287 14.9168 5.5V6.66667Z" fill="#6B7394"/>
<path opacity="0.1" d="M15 8H9.16667C8.52234 8 8 8.52234 8 9.16667V15C8 15.6443 8.52234 16.1667 9.16667 16.1667H15C15.6443 16.1667 16.1667 15.6443 16.1667 15V9.16667C16.1667 8.52234 15.6443 8 15 8Z" fill="#252D3A"/>
</g>
<rect x="7.5" y="9.39771" width="0.727264" height="4.2014" fill="#0098CF"/>
<rect x="11.1362" y="11.4985" width="0.727264" height="2.4008" fill="#0098CF"/>
<path d="M11.4997 7.29725L11.9474 7.77037L7.94764 9.87176L7.49989 9.39864L11.4997 7.29725Z" fill="#0098CF"/>
<path d="M11.5 7.2972L11.0523 7.77032L15.0522 9.8717L15.5 9.39858L11.5 7.2972Z" fill="#0098CF"/>
<path d="M11.4997 15.7028L11.9474 15.2296L7.94764 13.1283L7.49989 13.6014L11.4997 15.7028Z" fill="#0098CF"/>
<path d="M11.4998 15.7028L11.052 15.2297L15.052 13.1283L15.4997 13.6015L11.4998 15.7028Z" fill="#0098CF"/>
<path d="M11.4999 11.67L11.9476 11.1968L9.40237 9.97614L8.95462 10.4493L11.4999 11.67Z" fill="#0098CF"/>
<path d="M11.5 11.6698L11.0522 11.1967L13.5975 9.97621L14.0453 10.4493L11.5 11.6698Z" fill="#0098CF"/>
<rect x="14.7725" y="9.39771" width="0.727264" height="4.2014" fill="#0098CF"/>
</g>
<defs>
<clipPath id="clip0_2020_201">
<rect width="16" height="16" fill="white"/>
</clipPath>
</defs>
</svg>
